<svg xmlns="http://www.w3.org/2000/svg" viewBox="0 0 80 240" width="80" height="240">
  <defs>
    <linearGradient id="g" x1="0" y1="0" x2="1" y2="0">
      <stop offset="0" stop-color="#ffffff" stop-opacity=".2"/>
      <stop offset=".4" stop-color="#c45a1a"/>
      <stop offset="1" stop-color="#000" stop-opacity=".28"/>
    </linearGradient>
  </defs>
  <path d="M32 10h16c2 0 3 2 3 5v28c0 5 3 9 6 14 3 6 5 14 5 24v139c0 7-4 10-11 10H29c-7 0-11-3-11-10V81c0-10 2-18 5-24 3-5 6-9 6-14V15c0-3 1-5 3-5z" fill="url(#g)"/>
  <rect x="30" y="4" width="20" height="12" rx="2" fill="#1a120c"/>
  <rect x="20" y="108" width="40" height="58" rx="2" fill="#f4ead8"/>
  <text x="40" y="132" text-anchor="middle" font-family="Georgia,serif" font-size="6" fill="#2a160c">Lagunitas</text>
</svg>